<?xml version="1.0" standalone="no"?>
<!DOCTYPE svg PUBLIC "-//W3C//DTD SVG 20010904//EN"
 "http://www.w3.org/TR/2001/REC-SVG-20010904/DTD/svg10.dtd">
<svg version="1.0" xmlns="http://www.w3.org/2000/svg"
 width="3426.000000pt" height="3426.000000pt" viewBox="0 0 3426.000000 3426.000000"
 preserveAspectRatio="xMidYMid meet">
<metadata>
Created by potrace 1.14, written by Peter Selinger 2001-2017
</metadata>
<g transform="translate(0.000000,3426.000000) scale(0.100000,-0.100000)"
fill="#000000" stroke="none">
<path d="M17107 34214 c-1 -1 -36 -4 -77 -7 -147 -12 -272 -47 -412 -118 -124
-61 -191 -111 -302 -224 -231 -237 -354 -598 -313 -925 12 -96 18 -123 43
-200 85 -257 251 -454 528 -624 128 -80 220 -189 242 -290 3 -11 8 -32 11 -46
3 -14 6 -1265 7 -2780 l2 -2755 22 -66 c44 -132 120 -189 262 -195 129 -6 222
40 268 133 49 97 46 -41 47 2878 1 2219 4 2750 14 2795 34 142 109 240 250
327 295 181 456 379 536 661 59 207 50 439 -25 664 -135 405 -492 703 -905
757 -77 10 -193 19 -198 15z"/>
<path d="M13650 32964 c-108 -15 -194 -36 -258 -64 -25 -11 -48 -20 -53 -20
-17 0 -182 -101 -232 -142 -234 -194 -386 -470 -433 -788 -8 -50 -8 -215 0
-280 9 -75 43 -192 78 -268 67 -147 167 -260 321 -364 212 -143 343 -311 396
-510 18 -67 23 -94 36 -198 2 -19 4 -118 4 -220 -1 -102 -1 -311 -1 -465 1
-243 -5 -348 -23 -480 -24 -163 -24 -630 -1 -765 3 -14 10 -61 16 -105 14
-101 62 -305 96 -410 103 -320 250 -589 490 -897 55 -70 114 -146 131 -171
134 -182 257 -214 419 -109 154 100 188 226 107 398 -15 33 -69 115 -121 182
-51 68 -123 168 -158 223 -212 323 -342 710 -371 1109 -13 170 -6 497 12 592
6 29 18 321 18 423 0 44 -4 166 -8 270 -11 248 -12 498 -2 557 31 188 147 347
355 486 233 155 367 333 437 579 34 122 43 190 43 322 -3 476 -288 891 -720
1051 -182 66 -387 89 -578 64z"/>
<path d="M20355 32969 c-49 -4 -106 -11 -125 -15 -19 -4 -41 -8 -48 -10 -7 -1
-46 -12 -85 -24 -408 -124 -693 -466 -762 -915 -7 -46 -8 -260 -1 -292 2 -11
8 -43 12 -70 10 -71 60 -215 104 -302 55 -110 132 -215 224 -304 97 -95 129
-118 271 -190 179 -92 216 -143 207 -292 -11 -191 -5 -692 13 -955 23 -360 24
-895 1 -1040 -3 -14 -7 -49 -10 -78 -15 -129 -54 -317 -92 -439 -15 -48 -28
-92 -30 -98 -5 -23 -89 -214 -117 -270 -72 -139 -161 -270 -277 -410 -117
-142 -148 -202 -155 -305 -5 -76 20 -135 79 -193 66 -65 70 -68 133 -95 100
-43 196 -24 279 55 76 72 261 320 379 507 131 210 269 505 321 686 25 89 73
284 78 315 3 22 8 51 11 65 3 14 8 56 11 94 3 38 8 79 10 90 12 57 5 391 -11
511 -16 127 -20 223 -18 530 1 428 2 727 1 820 -3 194 51 343 167 461 33 33
113 96 177 138 219 144 356 312 432 531 33 96 34 99 50 200 14 90 13 265 -3
340 -6 28 -13 61 -15 74 -14 65 -64 195 -107 277 -80 154 -147 239 -289 365
-85 75 -279 174 -390 199 -105 24 -153 31 -230 36 -47 3 -89 6 -95 8 -5 1 -50
-1 -100 -5z"/>
<path d="M10968 30825 c-2 -1 -28 -5 -58 -8 -72 -8 -208 -48 -294 -87 -467
-209 -744 -674 -692 -1160 32 -293 204 -591 451 -779 22 -17 45 -34 50 -39 14
-12 176 -102 183 -102 3 0 29 -18 58 -40 36 -27 60 -56 78 -92 l25 -53 -4
-495 c-10 -1073 -9 -1289 9 -1371 32 -151 79 -274 179 -469 76 -147 111 -192
266 -342 148 -143 191 -194 225 -268 64 -138 3 -299 -186 -490 -61 -61 -83
-81 -243 -222 -98 -86 -180 -167 -377 -375 -45 -48 -69 -66 -108 -77 -66 -20
-122 -13 -184 23 -37 21 -457 434 -1509 1485 -801 801 -1457 1460 -1457 1465
0 4 -11 21 -25 37 -14 16 -25 33 -25 38 0 5 -6 17 -14 25 -7 9 -26 48 -41 86
-51 127 -42 284 25 431 30 66 40 149 26 214 -10 45 -16 74 -21 110 -33 211
-169 465 -331 621 -218 209 -470 314 -763 318 -127 2 -216 -10 -335 -44 -432
-125 -740 -482 -804 -930 -9 -63 -9 -264 0 -330 32 -237 138 -452 308 -626
164 -167 342 -269 556 -315 88 -19 292 -27 369 -14 102 17 121 21 155 32 37
12 217 16 265 6 54 -11 116 -37 179 -74 47 -29 270 -246 971 -949 501 -502
1007 -1011 1125 -1131 190 -193 295 -290 436 -399 344 -267 469 -431 466 -615
-2 -175 -100 -308 -422 -569 -91 -74 -230 -200 -310 -281 -168 -171 -197 -190
-287 -192 -66 -1 -135 42 -257 161 -132 129 -117 115 -201 183 -215 171 -511
310 -755 353 -18 3 -36 7 -39 9 -3 2 -30 7 -60 11 -30 4 -63 8 -73 10 -81 16
-996 24 -1419 12 -256 -7 -401 76 -570 326 -172 254 -396 420 -640 473 -51 11
-66 14 -114 23 -70 13 -244 11 -345 -5 -304 -46 -608 -239 -784 -498 -91 -134
-153 -285 -180 -442 -15 -81 -16 -311 -2 -369 4 -16 12 -50 18 -75 76 -322
303 -612 593 -759 83 -42 232 -94 301 -106 108 -18 158 -23 253 -23 202 -1
388 49 538 144 104 66 165 127 265 264 140 193 265 296 433 360 68 26 109 36
222 55 52 8 258 8 408 -1 176 -10 441 -9 565 2 228 21 438 1 614 -57 99 -33
241 -101 312 -148 25 -17 47 -31 49 -31 3 0 13 -6 22 -14 10 -8 52 -41 93 -74
41 -33 118 -102 170 -152 125 -121 377 -360 416 -397 106 -96 229 -210 243
-224 9 -8 86 -78 171 -154 85 -77 157 -142 160 -145 3 -3 46 -41 95 -85 50
-44 92 -82 95 -85 3 -3 43 -39 89 -80 47 -41 96 -86 111 -100 35 -33 188 -172
220 -200 14 -13 50 -39 79 -58 143 -92 269 -78 380 43 60 65 85 125 85 205 0
125 -40 177 -379 495 -71 66 -156 146 -189 177 -34 31 -70 65 -82 75 -32 27
-191 171 -249 226 -96 89 -122 185 -75 277 16 32 286 309 934 956 501 501
1032 1034 1181 1183 300 302 336 329 420 317 62 -10 110 -49 243 -201 107
-123 221 -248 308 -341 22 -22 89 -94 149 -158 187 -200 208 -222 259 -260 65
-49 108 -66 170 -66 69 0 139 34 203 99 104 104 124 209 64 333 -35 74 -71
118 -236 293 -67 72 -204 222 -305 335 -101 113 -219 244 -262 292 -44 48 -89
97 -99 110 -123 143 -486 511 -629 638 -252 223 -371 377 -452 585 -69 176
-73 208 -71 515 2 151 5 518 7 815 3 465 6 548 20 600 35 124 111 213 263 305
114 69 184 123 262 202 409 410 390 1133 -39 1558 -166 164 -366 272 -586 316
-68 14 -296 28 -306 19z"/>
<path d="M23089 30816 c-2 -2 -25 -6 -51 -9 -150 -18 -375 -111 -504 -207
-288 -217 -455 -555 -457 -924 0 -120 12 -200 49 -319 87 -278 298 -515 634
-711 61 -35 103 -74 126 -116 17 -31 19 -62 22 -290 11 -807 7 -1288 -13
-1425 -3 -16 -7 -52 -10 -79 -17 -141 -34 -207 -71 -268 -67 -113 -167 -244
-279 -367 -22 -24 -44 -49 -50 -55 -40 -44 -205 -224 -225 -246 -20 -20 -149
-161 -215 -234 -44 -48 -255 -279 -324 -354 -105 -114 -124 -135 -226 -247
-44 -48 -93 -102 -110 -120 -76 -83 -116 -127 -200 -219 -49 -55 -99 -109
-110 -121 -203 -215 -260 -325 -233 -448 17 -77 103 -178 190 -223 118 -60
231 -16 388 150 117 125 228 244 365 391 120 130 93 99 253 278 139 153 183
187 247 187 76 0 115 -33 545 -465 228 -230 758 -759 1176 -1177 561 -560 769
-773 790 -811 37 -69 38 -138 1 -199 -36 -59 -46 -69 -177 -183 -63 -54 -137
-120 -165 -146 -250 -234 -399 -375 -487 -460 -113 -110 -154 -189 -145 -279
11 -125 127 -263 247 -295 109 -29 201 20 409 216 42 41 115 108 161 149 46
41 88 80 94 85 208 190 428 390 459 418 12 10 46 41 77 70 52 48 149 137 335
306 38 36 95 87 125 115 30 28 129 119 220 201 91 83 167 152 170 155 28 29
159 136 210 172 74 52 185 110 245 128 125 37 153 39 665 40 278 0 588 4 690
7 280 10 377 7 450 -12 148 -38 254 -123 388 -308 99 -138 167 -210 267 -285
124 -93 322 -176 470 -197 28 -4 59 -9 70 -11 50 -10 224 -3 312 12 139 23
234 56 378 132 51 26 167 117 231 180 127 126 227 288 283 459 39 122 54 218
53 353 -1 163 -28 295 -90 438 -141 327 -451 586 -804 672 -226 55 -469 44
-651 -31 -187 -78 -310 -176 -419 -338 -163 -240 -327 -362 -545 -406 -118
-24 -188 -26 -873 -29 -613 -3 -651 -4 -760 -24 -151 -29 -261 -60 -393 -112
-110 -43 -269 -121 -298 -146 -8 -8 -22 -14 -29 -14 -8 0 -95 -83 -194 -184
-216 -220 -258 -249 -361 -250 -57 -1 -81 4 -130 27 -105 49 -217 147 -360
312 -115 134 -141 161 -355 376 -232 232 -247 255 -236 334 12 79 8 74 483
561 144 148 294 303 335 346 40 42 166 172 279 290 114 117 235 242 269 278
34 36 153 159 264 273 110 115 219 228 241 251 22 24 74 67 115 96 172 123
346 285 635 594 179 191 327 336 393 385 151 114 278 133 459 70 115 -39 171
-50 268 -50 224 0 487 90 677 231 60 44 212 204 253 265 79 119 158 301 180
412 21 111 27 329 12 427 -55 344 -276 646 -600 816 -167 88 -346 129 -547
125 -296 -7 -576 -129 -787 -344 -134 -136 -239 -321 -278 -491 -9 -41 -21
-88 -25 -105 -14 -59 -4 -329 15 -382 17 -50 25 -252 12 -323 -15 -84 -59
-178 -122 -260 -24 -30 -170 -181 -325 -335 -155 -154 -314 -313 -353 -353
-97 -99 -226 -232 -512 -527 -315 -325 -394 -404 -695 -695 -275 -265 -842
-823 -948 -933 -85 -87 -172 -133 -233 -123 -84 13 -90 18 -369 316 -172 182
-291 299 -411 399 -227 192 -275 338 -166 501 17 25 86 101 153 170 189 192
238 257 325 431 50 100 82 201 104 328 3 19 8 38 11 42 6 10 50 237 58 299 17
126 21 219 20 475 0 154 -3 343 -7 420 -8 163 -9 522 -2 580 3 22 7 60 10 84
14 104 71 213 142 268 21 16 91 64 156 107 349 230 528 546 529 933 0 46 -3
102 -7 125 -4 24 -9 57 -11 73 -28 182 -154 427 -296 575 -168 176 -402 303
-635 344 -68 12 -304 21 -314 12z"/>
<path d="M16829 23446 c-2 -2 -46 -7 -98 -11 -52 -3 -97 -8 -100 -10 -3 -1
-40 -6 -81 -10 -41 -4 -82 -8 -90 -10 -8 -1 -40 -6 -70 -10 -30 -4 -64 -9 -75
-11 -11 -2 -40 -7 -65 -10 -82 -11 -227 -52 -284 -80 -110 -54 -181 -156 -224
-319 -20 -76 -54 -257 -67 -355 -3 -25 -8 -52 -10 -60 -2 -8 -6 -37 -10 -65
-3 -27 -10 -68 -15 -90 -5 -22 -11 -54 -15 -72 -3 -18 -17 -65 -31 -105 -102
-282 -270 -441 -514 -483 -175 -31 -384 26 -592 160 -40 26 -75 51 -78 54 -3
4 -70 54 -150 111 -80 57 -147 107 -150 110 -3 3 -22 18 -42 33 -20 15 -65 52
-100 83 -35 31 -87 67 -116 81 -131 62 -211 32 -500 -185 -347 -261 -655 -548
-1022 -952 -47 -51 -90 -98 -95 -104 -6 -6 -35 -40 -65 -76 -30 -36 -58 -67
-61 -70 -18 -16 -113 -148 -142 -197 -53 -92 -67 -144 -63 -237 5 -114 56
-225 198 -427 182 -259 250 -350 302 -403 103 -105 138 -163 152 -253 15 -96
-6 -200 -66 -328 -32 -68 -72 -154 -123 -267 -43 -94 -115 -174 -195 -216 -98
-51 -158 -64 -282 -60 -178 5 -224 2 -301 -24 -67 -23 -87 -25 -190 -22 -168
5 -269 -23 -355 -99 -60 -51 -122 -162 -139 -244 -16 -78 -34 -208 -40 -293
-4 -52 -8 -108 -10 -125 -4 -49 -17 -293 -21 -385 -4 -108 -4 -610 1 -715 22
-501 36 -608 96 -741 79 -177 251 -248 719 -298 25 -3 65 -8 90 -11 25 -2 68
-7 95 -10 142 -13 176 -19 245 -41 92 -29 153 -68 218 -139 85 -92 191 -328
219 -485 10 -52 10 -185 1 -218 -5 -19 -11 -42 -13 -52 -6 -33 -58 -135 -89
-175 -17 -22 -63 -74 -103 -115 -79 -83 -111 -123 -197 -251 -32 -48 -86 -118
-120 -157 -91 -104 -119 -160 -122 -253 -3 -81 11 -135 57 -215 22 -37 92
-136 114 -160 6 -6 21 -26 35 -44 88 -116 251 -309 398 -470 212 -233 582
-583 797 -755 28 -22 52 -42 55 -45 14 -14 82 -60 135 -92 183 -108 331 -91
580 69 71 46 296 202 305 213 11 12 178 128 229 159 29 17 94 46 145 63 79 27
105 31 201 32 61 0 126 -2 146 -6 153 -27 323 -134 413 -261 98 -138 122 -205
171 -472 25 -137 56 -288 60 -294 1 -3 6 -22 9 -41 9 -57 53 -203 80 -264 103
-232 264 -310 711 -342 522 -37 811 -37 1145 0 30 4 80 9 110 12 129 13 330
45 398 64 223 62 325 188 378 465 2 11 6 31 9 45 10 50 54 306 59 345 5 36 27
150 39 200 15 61 88 227 108 245 3 3 15 21 27 41 27 44 112 128 176 174 111
79 291 114 451 90 111 -18 286 -96 413 -186 203 -143 315 -228 385 -292 91
-82 115 -100 176 -129 101 -46 217 -37 339 26 175 92 588 452 852 741 30 34
76 83 101 110 25 28 109 127 188 220 79 94 151 180 162 192 86 103 185 234
217 290 54 93 74 154 79 248 8 128 -29 223 -141 361 -26 32 -56 75 -67 96 -58
114 -152 238 -219 289 -24 19 -68 59 -97 89 -62 65 -67 86 -68 260 0 109 3
146 20 215 54 222 195 403 395 504 92 46 150 65 260 85 77 14 106 18 197 31
15 2 42 6 58 9 17 2 50 8 75 11 25 3 52 8 60 10 8 2 47 6 85 10 145 13 171 16
224 31 97 28 165 83 205 168 29 63 42 118 61 256 3 25 8 56 10 70 3 14 7 52
10 84 3 33 7 62 9 65 2 3 7 51 11 106 4 55 9 120 11 145 20 247 20 788 0 995
-2 22 -7 83 -11 135 -4 52 -8 106 -10 120 -2 14 -6 52 -10 85 -30 309 -81 441
-204 527 -88 62 -160 76 -401 83 -236 7 -288 12 -446 50 -356 84 -566 301
-652 672 l-19 82 27 69 c61 157 186 349 366 562 179 211 260 318 290 383 25
56 43 130 38 163 -10 76 -18 102 -44 153 -23 46 -113 171 -203 281 -233 286
-317 380 -582 646 -169 169 -265 260 -415 390 -25 21 -47 41 -50 44 -3 3 -34
30 -70 60 -36 30 -67 57 -70 60 -9 9 -154 115 -180 131 -79 49 -210 74 -293
56 -92 -20 -230 -105 -483 -298 -278 -211 -354 -256 -520 -304 -314 -91 -595
35 -756 340 -27 52 -84 214 -93 265 -6 34 -8 46 -29 180 -8 52 -18 115 -21
140 -4 25 -9 59 -12 75 -6 36 -9 69 -17 160 -18 204 -35 261 -96 325 -41 43
-121 85 -180 95 -19 3 -42 8 -50 10 -8 2 -51 7 -95 10 -44 4 -87 8 -95 11 -8
2 -45 6 -81 9 -36 3 -75 7 -87 10 -11 2 -56 7 -99 10 -43 4 -85 8 -93 10 -8 2
-51 6 -95 10 -44 3 -105 9 -135 12 -67 6 -615 14 -621 9z"/>
<path d="M2295 21578 c-516 -52 -958 -488 -1023 -1010 -62 -493 246 -983 743
-1182 141 -57 238 -77 390 -81 179 -5 323 23 477 94 26 11 49 21 52 21 13 0
116 68 178 117 93 73 161 155 243 287 39 63 84 129 100 148 60 66 149 124 220
143 17 5 37 10 45 12 14 4 609 10 1495 15 405 2 535 -5 790 -47 137 -22 392
-96 500 -146 28 -12 52 -23 55 -24 13 -3 177 -88 190 -99 8 -7 35 -24 60 -39
25 -14 54 -32 65 -41 11 -9 51 -39 88 -68 37 -29 91 -74 118 -99 106 -98 224
-130 329 -90 154 58 244 268 178 412 -42 91 -106 150 -307 283 -288 192 -594
360 -778 427 -336 122 -542 160 -838 154 -93 -2 -181 -6 -195 -8 -99 -20 -289
-31 -525 -30 -585 3 -1124 11 -1169 18 -157 25 -291 119 -392 275 -24 38 -44
71 -44 75 0 3 -19 32 -41 63 -222 305 -594 461 -1004 420z"/>
<path d="M31675 21579 c-199 -25 -414 -120 -528 -234 -48 -48 -127 -140 -127
-148 0 -13 -78 -127 -126 -184 -155 -187 -379 -288 -629 -284 -22 1 -256 3
-520 6 -264 2 -502 6 -530 9 -181 17 -244 20 -450 20 -197 1 -359 -7 -423 -19
-9 -1 -44 -6 -77 -10 -181 -20 -505 -108 -650 -174 -22 -10 -49 -21 -61 -25
-42 -13 -272 -140 -364 -202 -117 -77 -344 -259 -422 -336 -80 -80 -102 -126
-103 -213 0 -54 6 -82 24 -120 35 -72 85 -131 139 -162 39 -24 58 -28 117 -28
109 0 189 38 320 150 249 213 532 360 848 441 56 14 111 28 122 29 149 27 228
38 370 51 72 7 470 7 575 0 318 -20 588 -24 870 -12 263 12 359 13 395 4 17
-4 47 -9 68 -12 48 -8 140 -45 197 -81 73 -46 160 -142 247 -270 128 -189 222
-275 389 -359 469 -234 1095 -85 1412 336 146 194 221 412 226 665 12 507
-273 927 -744 1098 -41 15 -86 29 -100 31 -14 3 -31 7 -38 9 -69 24 -315 38
-427 24z"/>
<path d="M1079 18275 c-2 -1 -27 -6 -54 -8 -28 -3 -63 -10 -78 -16 -15 -6 -27
-9 -27 -6 0 9 -152 -49 -235 -90 -208 -104 -391 -285 -524 -517 -10 -18 -42
-73 -70 -121 -28 -49 -51 -91 -51 -95 0 -3 -7 -13 -16 -23 -14 -15 -16 -53
-16 -281 1 -364 -1 -336 22 -343 36 -11 95 -80 134 -156 63 -119 114 -188 210
-284 227 -225 509 -343 821 -343 377 -1 704 177 922 501 118 175 217 255 363
293 60 16 265 17 2705 19 1452 1 2651 5 2665 8 14 3 52 8 85 11 145 15 209 35
266 84 48 41 69 79 84 152 29 145 -31 277 -157 341 -90 46 -112 47 -1028 49
-1046 1 -2707 2 -3755 0 -817 -1 -849 0 -951 47 -111 50 -173 111 -281 271
-123 184 -262 312 -432 397 -67 34 -211 89 -211 80 0 -2 -21 4 -47 12 -43 14
-333 29 -344 18z"/>
<path d="M32925 18269 c-317 -45 -576 -214 -768 -499 -111 -165 -171 -224
-277 -271 -106 -48 -148 -50 -895 -49 -795 1 -3574 0 -4065 -1 -179 -1 -363 2
-410 6 -180 17 -303 5 -382 -36 -76 -39 -131 -152 -132 -272 0 -172 44 -262
156 -311 68 -30 135 -40 263 -36 233 6 5409 1 5442 -5 96 -18 163 -79 231
-213 143 -281 378 -464 707 -549 87 -23 121 -27 265 -27 209 -1 268 7 430 61
157 52 301 142 421 262 84 85 136 157 199 278 29 56 59 96 96 129 l54 48 0
294 0 294 -43 77 c-157 278 -228 381 -345 496 -161 159 -352 262 -577 311 -77
17 -291 25 -370 13z"/>
<path d="M2357 14954 c-1 -1 -29 -5 -62 -9 -74 -8 -197 -39 -279 -69 -320
-121 -572 -386 -691 -728 -20 -57 -35 -104 -35 -106 1 -1 -2 -21 -6 -45 -4
-23 -8 -53 -10 -67 -6 -42 -5 -223 0 -250 3 -14 11 -49 17 -78 15 -73 60 -204
97 -282 149 -313 446 -541 792 -609 30 -6 69 -13 85 -16 17 -3 105 -8 196 -10
191 -4 307 13 430 61 159 64 247 144 332 304 62 116 161 234 257 306 80 59
247 128 340 139 20 3 63 8 96 13 63 8 1322 7 1364 -2 29 -5 99 -14 185 -21 64
-6 313 -6 355 -1 14 2 57 7 95 10 39 4 77 9 85 11 8 2 31 6 51 9 311 46 730
223 1084 459 81 54 232 163 245 177 3 3 22 18 43 33 61 46 133 126 158 176 30
59 36 134 15 194 -48 142 -145 235 -248 238 -99 3 -178 -33 -322 -145 -201
-158 -361 -257 -546 -338 -124 -55 -296 -114 -390 -133 -8 -2 -37 -9 -65 -15
-27 -6 -61 -13 -75 -15 -14 -2 -54 -8 -90 -14 -36 -6 -103 -14 -150 -19 -107
-9 -517 -9 -590 1 -167 21 -659 28 -1010 13 -254 -11 -337 -10 -400 3 -123 26
-228 107 -315 242 -27 41 -64 99 -84 129 -58 89 -216 238 -316 297 -140 84
-291 135 -435 149 -54 5 -200 11 -203 8z"/>
<path d="M31648 14944 c-48 -7 -107 -19 -130 -25 -24 -7 -45 -13 -48 -13 -3
-1 -32 -12 -65 -26 -172 -69 -318 -196 -422 -365 -101 -164 -198 -262 -322
-325 -125 -62 -212 -77 -441 -71 -253 6 -511 5 -775 -4 -268 -8 -656 -9 -755
-1 -164 14 -216 19 -230 21 -8 1 -40 6 -70 9 -90 11 -161 25 -295 56 -111 26
-327 105 -445 162 -151 74 -321 188 -455 304 -55 48 -120 96 -145 107 -62 28
-152 28 -206 0 -119 -62 -207 -232 -183 -356 20 -106 54 -148 202 -244 56 -36
172 -112 257 -168 190 -125 297 -192 373 -234 466 -259 779 -325 1262 -266
157 19 588 24 1035 12 124 -4 335 -7 470 -8 278 -2 338 -11 435 -69 74 -45
134 -112 202 -227 159 -271 354 -429 623 -504 74 -20 108 -23 255 -24 186 0
278 9 380 37 22 7 42 12 45 13 78 17 285 120 328 162 7 7 17 13 22 13 18 0
199 190 242 255 52 78 121 205 112 205 -4 0 -2 6 4 13 11 14 59 150 66 189 2
15 7 31 9 35 8 13 21 142 20 203 -2 421 -273 846 -654 1028 -74 35 -197 78
-249 87 -19 3 -42 8 -50 10 -80 21 -288 26 -402 9z"/>
<path d="M24012 13413 c-58 -27 -127 -100 -162 -171 -17 -34 -24 -64 -24 -112
-1 -116 62 -211 244 -370 14 -12 125 -114 250 -230 15 -14 69 -63 120 -110 51
-47 102 -94 114 -105 12 -11 58 -52 102 -91 138 -121 173 -169 176 -244 1 -46
-9 -76 -42 -125 -15 -22 -225 -236 -465 -475 -412 -410 -1272 -1272 -1711
-1716 -245 -247 -292 -274 -394 -230 -47 21 -91 62 -201 191 -52 60 -101 116
-109 125 -8 9 -55 61 -105 115 -325 356 -490 519 -556 549 -114 53 -206 35
-307 -59 -95 -87 -127 -182 -96 -285 16 -55 93 -175 151 -235 22 -22 120 -130
218 -240 99 -110 189 -209 200 -221 11 -11 36 -39 55 -60 19 -21 82 -91 140
-154 164 -180 274 -301 290 -320 16 -18 174 -190 231 -251 29 -30 173 -185
269 -289 396 -428 472 -565 506 -915 9 -84 11 -1345 3 -1394 -14 -87 -19 -108
-34 -150 -49 -139 -141 -246 -308 -358 -263 -177 -412 -394 -473 -690 -130
-639 295 -1240 956 -1352 99 -17 291 -11 405 13 409 84 762 432 874 861 66
250 42 515 -64 725 -79 156 -184 267 -373 394 -112 76 -226 205 -286 323 -36
71 -74 207 -82 295 -7 64 -9 845 -3 1188 5 330 -64 612 -224 920 -69 132 -114
194 -208 280 -233 213 -292 294 -292 395 0 136 96 281 324 487 200 181 405
379 521 506 64 70 112 96 175 94 89 -1 117 -25 492 -401 1044 -1051 1484
-1491 2018 -2021 l590 -585 44 -89 c43 -87 44 -92 46 -196 2 -91 -2 -122 -27
-216 -40 -147 -53 -288 -35 -395 43 -262 153 -470 347 -654 317 -302 723 -403
1113 -278 289 93 535 298 677 563 48 90 100 233 113 310 19 108 23 161 20 272
-2 70 -6 131 -9 136 -3 5 -8 26 -12 47 -17 108 -91 281 -175 410 -59 91 -207
243 -290 297 -120 79 -286 146 -404 163 -27 4 -59 10 -70 12 -11 3 -76 6 -145
7 -118 3 -254 -11 -346 -33 -23 -6 -80 -14 -126 -17 -99 -8 -177 10 -245 58
-24 16 -157 145 -296 286 -138 141 -800 804 -1469 1474 -1090 1088 -1221 1222
-1245 1274 -34 76 -34 136 2 201 30 57 76 106 240 258 186 173 333 322 506
515 99 110 170 154 248 154 87 0 137 -30 281 -173 206 -203 368 -318 573 -406
101 -44 239 -90 302 -101 17 -3 48 -9 70 -14 97 -21 216 -24 975 -25 443 -1
818 -5 834 -9 60 -15 142 -61 186 -105 25 -25 71 -89 102 -141 97 -164 182
-267 300 -364 112 -91 278 -169 408 -191 25 -4 54 -9 65 -11 30 -6 230 -5 310
2 218 18 443 96 598 207 196 141 347 366 412 613 41 157 51 347 25 482 -6 32
-13 68 -16 82 -12 58 -59 181 -99 257 -158 300 -434 511 -789 602 -44 12 -113
24 -155 27 -182 16 -298 5 -424 -37 -173 -58 -320 -169 -415 -314 -59 -90
-133 -186 -181 -234 -126 -126 -307 -214 -490 -237 -25 -3 -57 -8 -71 -10 -49
-9 -1402 -1 -1440 9 -14 4 -47 12 -75 18 -125 28 -268 95 -378 178 -59 44
-352 305 -427 381 -8 8 -42 40 -75 70 -33 30 -108 98 -165 151 -58 53 -154
140 -215 195 -60 54 -119 108 -131 119 -11 11 -38 36 -60 55 -62 55 -152 137
-249 226 -49 45 -101 92 -114 104 -47 40 -295 264 -327 295 -45 43 -164 146
-207 178 -110 84 -213 104 -305 60z"/>
<path d="M10069 13415 c-84 -31 -146 -77 -324 -241 -53 -49 -109 -100 -124
-113 -14 -13 -70 -65 -125 -115 -54 -50 -104 -95 -110 -101 -6 -5 -61 -55
-121 -110 -60 -55 -115 -104 -121 -110 -24 -22 -92 -82 -149 -134 -33 -30 -76
-68 -95 -85 -28 -24 -169 -151 -246 -221 -10 -10 -210 -196 -298 -279 -473
-444 -578 -505 -924 -532 -74 -5 -1433 -5 -1467 1 -154 27 -247 70 -333 153
-33 33 -92 108 -132 167 -40 59 -84 121 -99 138 -165 187 -361 298 -626 353
-16 3 -84 7 -150 9 -322 10 -616 -108 -849 -340 -137 -137 -229 -282 -286
-452 -42 -126 -51 -179 -55 -318 -5 -181 28 -339 105 -500 140 -296 389 -519
690 -619 246 -82 536 -79 750 7 156 63 300 173 390 297 162 222 255 312 399
384 113 57 170 73 346 101 22 4 126 6 230 4 376 -5 1022 -2 1145 4 107 6 171
15 288 42 88 21 317 111 420 167 74 39 123 80 226 186 46 48 108 112 138 142
186 193 317 214 520 84 89 -57 196 -160 337 -324 181 -211 262 -296 351 -370
116 -96 162 -170 156 -250 -8 -114 -19 -126 -566 -659 -274 -267 -2021 -2016
-2128 -2130 -189 -201 -264 -271 -357 -329 -56 -35 -135 -72 -168 -78 -121
-22 -139 -23 -224 -11 -52 8 -153 41 -213 72 -40 20 -53 22 -90 14 -44 -10
-62 -13 -145 -24 -141 -18 -328 -78 -407 -131 -21 -13 -40 -24 -44 -24 -16 0
-159 -118 -212 -174 -205 -219 -311 -486 -316 -791 -5 -286 110 -569 312 -773
126 -126 169 -159 303 -230 357 -191 767 -176 1115 39 108 67 272 224 341 329
134 200 196 401 196 630 1 116 -9 179 -53 365 -29 121 -24 211 16 291 32 64
49 81 554 574 274 268 1591 1583 2272 2270 216 218 265 253 342 253 62 0 117
-34 208 -130 224 -234 281 -293 383 -392 61 -59 137 -132 170 -161 207 -186
258 -259 259 -365 0 -88 -40 -156 -172 -292 -182 -187 -280 -319 -369 -498
-78 -156 -137 -332 -158 -475 -4 -25 -9 -54 -11 -65 -10 -52 -18 -202 -16
-310 8 -478 6 -1228 -4 -1290 -34 -198 -134 -336 -351 -480 -102 -68 -252
-214 -308 -300 -85 -130 -138 -270 -163 -425 -9 -60 -8 -262 1 -325 56 -367
312 -712 647 -872 116 -55 207 -85 297 -98 23 -3 57 -8 75 -11 46 -6 188 -6
245 1 455 55 838 383 972 833 11 37 23 84 26 106 4 21 9 48 12 60 3 11 6 75 8
141 4 131 -11 239 -46 345 -25 75 -89 211 -109 230 -3 3 -21 25 -40 50 -50 65
-114 123 -200 182 -301 206 -422 405 -456 743 -8 82 -7 192 2 370 8 159 8 299
1 645 -4 196 -2 225 19 325 63 305 178 504 458 800 68 72 138 146 156 165 18
19 58 62 89 95 68 72 264 285 381 414 92 101 88 96 205 226 44 49 87 96 95
105 8 9 49 54 90 100 41 47 96 108 121 135 25 28 66 72 90 100 24 27 53 59 64
71 247 261 306 352 307 470 1 141 -155 297 -297 297 -89 0 -152 -38 -285 -172
-101 -102 -296 -308 -352 -373 -11 -13 -36 -41 -57 -63 -20 -22 -79 -87 -130
-145 -208 -236 -252 -272 -326 -272 -23 0 -60 9 -82 20 -51 27 -2429 2405
-2456 2457 -27 54 -25 114 6 167 15 26 79 92 149 154 68 60 125 111 128 114 3
3 59 55 125 115 66 61 129 119 140 130 12 11 66 61 121 110 273 248 328 322
328 445 1 53 -4 74 -28 117 -80 146 -222 214 -347 168z"/>
<path d="M17128 8285 c-2 -2 -26 -5 -55 -8 -90 -9 -161 -56 -196 -130 -46 -97
-45 -3 -44 -2895 0 -2896 2 -2788 -46 -2892 -29 -62 -137 -167 -227 -220 -155
-90 -273 -197 -375 -338 -70 -98 -152 -291 -170 -398 -3 -22 -9 -57 -12 -79
-9 -57 -8 -228 1 -305 16 -128 76 -302 144 -415 181 -304 485 -508 832 -561
25 -4 99 -7 165 -7 621 1 1129 515 1129 1143 0 184 -29 308 -110 475 -96 199
-235 351 -429 470 -144 88 -204 142 -249 224 -54 99 -51 -45 -50 2906 1 2936
3 2802 -47 2900 -35 67 -94 108 -176 121 -53 9 -82 12 -85 9z"/>
<path d="M14396 7609 c-53 -15 -91 -52 -148 -143 -31 -50 -122 -183 -202 -296
-224 -313 -366 -533 -366 -564 0 -8 -3 -16 -8 -18 -10 -4 -66 -129 -92 -203
-67 -193 -80 -299 -73 -590 9 -433 4 -2003 -8 -2074 -24 -156 -112 -268 -291
-375 -108 -64 -133 -82 -209 -156 -293 -285 -401 -742 -268 -1131 39 -113 124
-270 198 -362 50 -63 181 -183 254 -231 108 -72 259 -140 357 -161 3 -1 19 -4
35 -8 92 -21 286 -28 399 -14 409 49 779 349 910 739 14 40 28 88 31 107 3 19
8 37 10 41 18 30 27 315 13 410 -19 133 -74 288 -142 405 -91 156 -221 279
-406 387 -52 31 -120 80 -150 110 -51 51 -105 139 -116 191 -18 81 -21 146
-18 355 5 291 5 1323 1 1640 -4 278 4 356 49 490 35 106 72 173 194 357 136
206 204 316 322 525 104 183 124 264 92 367 -43 136 -234 241 -368 202z"/>
<path d="M19702 7592 c-102 -43 -183 -125 -211 -212 -15 -48 -5 -141 21 -203
31 -73 56 -109 205 -292 50 -60 162 -247 218 -360 145 -297 216 -574 241 -945
13 -185 9 -399 -14 -655 -8 -88 -7 -753 0 -980 7 -196 -2 -260 -53 -355 -43
-80 -130 -160 -260 -237 -240 -142 -385 -322 -474 -588 -15 -43 -29 -96 -31
-118 -3 -23 -7 -44 -9 -47 -5 -8 -18 -152 -19 -200 0 -103 27 -268 60 -366
111 -329 412 -617 754 -719 106 -32 212 -44 350 -40 74 2 142 6 150 9 8 3 29
7 45 9 82 12 227 62 315 110 335 181 569 544 606 938 36 377 -109 720 -370
876 -262 156 -379 298 -442 533 -21 78 -29 185 -27 340 2 74 5 306 7 515 2
209 6 389 9 400 3 11 8 49 12 85 4 36 10 76 12 90 9 52 12 498 3 565 -4 39
-11 97 -15 130 -4 33 -11 83 -16 110 -5 28 -12 64 -15 80 -9 52 -45 199 -53
220 -5 11 -15 40 -22 65 -24 86 -101 276 -156 390 -87 178 -187 338 -321 513
-225 295 -285 349 -397 354 -40 2 -74 -3 -103 -15z"/>
</g>
</svg>
